<!DOCTYPE svg PUBLIC "-//W3C//DTD SVG 1.1 Basic//EN"
	"http://www.w3.org/Graphics/SVG/1.1/DTD/svg11-basic.dtd">
<svg xmlns="http://www.w3.org/2000/svg" xmlns:xlink="http://www.w3.org/1999/xlink"
  viewBox="0 0 640 640">
 <script>
(function()
{ function update()
  { var md = [ 31, 28, 31, 30, 31, 30, 31, 31, 30, 31, 30, 31 ];
    var d = new Date();
    var s = (d.getSeconds() + d.getMilliseconds() / 1000) / 60;
    var m = (d.getMinutes() + s) / 60;
    var h = (d.getHours() + m) / 24;
    var w = (d.getDay() + h) / 7;
    var yr = d.getFullYear();
    if(!(y%400) || (!(y%4) &#x26;&#x26; (y%100))) md[1] = 29;
    var mo = d.getMonth();
    for(i = 0; i &#x3c; 31; ++i)
    { var a = 180 + 360 * i / md[mo];
      if(a > 360) a -= 360;
      a = Math.round(a * 10) / 10;
      var e = document.getElementById('mo' + i);
      e.style.display = md[mo] > i ? 'inline' : 'none';
      e.setAttribute('transform', 'rotate(' + a + ' 320 320)'); }
    var p = (d.getDate() - 1 + h) / md[mo];
    var y = (mo + p) / 12;
    document.getElementById('y').setAttribute('transform', 'rotate(' + (360 * y) + ' 320 320)');
    document.getElementById('p').setAttribute('transform', 'rotate(' + (360 * p) + ' 320 320)');
    document.getElementById('w').setAttribute('transform', 'rotate(' + (360 * w) + ' 320 320)');
    document.getElementById('h').setAttribute('transform', 'rotate(' + (360 * h) + ' 320 320)');
    document.getElementById('m').setAttribute('transform', 'rotate(' + (360 * m) + ' 320 320)');
    document.getElementById('s').setAttribute('transform', 'rotate(' + (360 * s) + ' 320 320)');
 }

  function updateLoop()
  { update();
    requestAnimationFrame(updateLoop); }

  window.onload = updateLoop; })();
 </script>
 <style>
  @font-face
  { font-family: "Noto Serif";
    src: local("Noto Serif"), url("NotoSerif-Regular.ttf"); }
    
  text
  { dominant-baseline: central;
    text-anchor: middle;
    font-family: "Noto Serif", serif; }
  .h
  { font-size: 40px;
    stroke: #000;
    fill: none; }
  .m
  { font-size: 20px;
    stroke: #000;
    fill : #000; }
  .mo
  { font-size: 20px;
    stroke: #77f;
    fill : #77f; }
  .w
  { font-size: 15px;
    stroke: #777;
    fill: #777; }
  .y
  { font-size: 15px;
    stroke: #f70;
    fill: #f70; }
  #t line
  { stroke-width: 3px;
    stroke: #000; }
 </style>
 <circle cx="320" cy="320" r="300" fill="#fff" stroke-width="10" stroke="#000"/>
 <text class="h" x="320" y="45">12</text>
 <text class="h" x="320" y="45" transform="rotate(15 320 320)">13</text>
 <text class="h" x="320" y="45" transform="rotate(30 320 320)">14</text>
 <text class="h" x="320" y="45" transform="rotate(45 320 320)">15</text>
 <text class="h" x="320" y="45" transform="rotate(60 320 320)">16</text>
 <text class="h" x="320" y="45" transform="rotate(75 320 320)">17</text>
 <text class="h" x="320" y="45" transform="rotate(90 320 320)">18</text>
 <text class="h" x="320" y="45" transform="rotate(105 320 320)">19</text>
 <text class="h" x="320" y="45" transform="rotate(120 320 320)">20</text>
 <text class="h" x="320" y="45" transform="rotate(135 320 320)">21</text>
 <text class="h" x="320" y="45" transform="rotate(150 320 320)">22</text>
 <text class="h" x="320" y="45" transform="rotate(165 320 320)">23</text>
 <text class="h" x="320" y="45" transform="rotate(180 320 320)">00</text>
 <text class="h" x="320" y="45" transform="rotate(195 320 320)">01</text>
 <text class="h" x="320" y="45" transform="rotate(210 320 320)">02</text>
 <text class="h" x="320" y="45" transform="rotate(225 320 320)">03</text>
 <text class="h" x="320" y="45" transform="rotate(240 320 320)">04</text>
 <text class="h" x="320" y="45" transform="rotate(255 320 320)">05</text>
 <text class="h" x="320" y="45" transform="rotate(270 320 320)">06</text>
 <text class="h" x="320" y="45" transform="rotate(285 320 320)">07</text>
 <text class="h" x="320" y="45" transform="rotate(300 320 320)">08</text>
 <text class="h" x="320" y="45" transform="rotate(315 320 320)">09</text>
 <text class="h" x="320" y="45" transform="rotate(330 320 320)">10</text>
 <text class="h" x="320" y="45" transform="rotate(345 320 320)">11</text>
 <text class="m" x="320" y="80">30</text>
 <text class="m" x="320" y="80" transform="rotate(30 320 320)">35</text>
 <text class="m" x="320" y="80" transform="rotate(60 320 320)">40</text>
 <text class="m" x="320" y="80" transform="rotate(90 320 320)">45</text>
 <text class="m" x="320" y="80" transform="rotate(120 320 320)">50</text>
 <text class="m" x="320" y="80" transform="rotate(150 320 320)">55</text>
 <text class="m" x="320" y="80" transform="rotate(180 320 320)">00</text>
 <text class="m" x="320" y="80" transform="rotate(210 320 320)">05</text>
 <text class="m" x="320" y="80" transform="rotate(240 320 320)">10</text>
 <text class="m" x="320" y="80" transform="rotate(270 320 320)">15</text>
 <text class="m" x="320" y="80" transform="rotate(300 320 320)">20</text>
 <text class="m" x="320" y="80" transform="rotate(330 320 320)">25</text>
 <g id="t">
  <g id="t3">
   <line id="t1" x1="320" y1="75" x2="320" y2="85" transform="rotate(6 320 320)"/>
   <use xlink:href="#t1" transform="rotate(30 320 320)"/>
   <use xlink:href="#t1" transform="rotate(60 320 320)"/>
   <use xlink:href="#t1" transform="rotate(90 320 320)"/>
  </g>
  <use xlink:href="#t3" transform="rotate(90 320 320)"/>
  <use xlink:href="#t3" transform="rotate(180 320 320)"/>
  <use xlink:href="#t3" transform="rotate(270 320 320)"/>
 </g>
 <use xlink:href="#t" transform="rotate(6 320 320)"/>
 <use xlink:href="#t" transform="rotate(12 320 320)"/>
 <use xlink:href="#t" transform="rotate(18 320 320)"/>
 <text class="w" x="320" y="120" transform="rotate(25.7 320 320)">THU</text>
 <text class="w" x="320" y="120" transform="rotate(77.1 320 320)">FRI</text>
 <text class="w" x="320" y="120" transform="rotate(128.6 320 320)">SAT</text>
 <text class="w" x="320" y="120" transform="rotate(180 320 320)">SUN</text>
 <text class="w" x="320" y="120" transform="rotate(231.4 320 320)">MON</text>
 <text class="w" x="320" y="120" transform="rotate(282.9 320 320)">TUE</text>
 <text class="w" x="320" y="120" transform="rotate(334.3 320 320)">WED</text>
 <text class="mo" id="mo0" x="320" y="140">1</text>
 <text class="mo" id="mo1" x="320" y="140">2</text>
 <text class="mo" id="mo2" x="320" y="140">3</text>
 <text class="mo" id="mo3" x="320" y="140">4</text>
 <text class="mo" id="mo4" x="320" y="140">5</text>
 <text class="mo" id="mo5" x="320" y="140">6</text>
 <text class="mo" id="mo6" x="320" y="140">7</text>
 <text class="mo" id="mo7" x="320" y="140">8</text>
 <text class="mo" id="mo8" x="320" y="140">9</text>
 <text class="mo" id="mo9" x="320" y="140">10</text>
 <text class="mo" id="mo10" x="320" y="140">11</text>
 <text class="mo" id="mo11" x="320" y="140">12</text>
 <text class="mo" id="mo12" x="320" y="140">13</text>
 <text class="mo" id="mo13" x="320" y="140">14</text>
 <text class="mo" id="mo14" x="320" y="140">15</text>
 <text class="mo" id="mo15" x="320" y="140">16</text>
 <text class="mo" id="mo16" x="320" y="140">17</text>
 <text class="mo" id="mo17" x="320" y="140">18</text>
 <text class="mo" id="mo18" x="320" y="140">19</text>
 <text class="mo" id="mo19" x="320" y="140">20</text>
 <text class="mo" id="mo20" x="320" y="140">21</text>
 <text class="mo" id="mo21" x="320" y="140">22</text>
 <text class="mo" id="mo22" x="320" y="140">23</text>
 <text class="mo" id="mo23" x="320" y="140">24</text>
 <text class="mo" id="mo24" x="320" y="140">25</text>
 <text class="mo" id="mo25" x="320" y="140">26</text>
 <text class="mo" id="mo26" x="320" y="140">27</text>
 <text class="mo" id="mo27" x="320" y="140">28</text>
 <text class="mo" id="mo28" x="320" y="140">29</text>
 <text class="mo" id="mo29" x="320" y="140">30</text>
 <text class="mo" id="mo30" x="320" y="140">31</text>
 <text class="y" x="320" y="160">JUL</text>
 <text class="y" x="320" y="160" transform="rotate(30 320 320)">AUG</text>
 <text class="y" x="320" y="160" transform="rotate(60 320 320)">SEP</text>
 <text class="y" x="320" y="160" transform="rotate(90 320 320)">OCT</text>
 <text class="y" x="320" y="160" transform="rotate(120 320 320)">NOV</text>
 <text class="y" x="320" y="160" transform="rotate(150 320 320)">DEC</text>
 <text class="y" x="320" y="160" transform="rotate(180 320 320)">JAN</text>
 <text class="y" x="320" y="160" transform="rotate(210 320 320)">FEB</text>
 <text class="y" x="320" y="160" transform="rotate(240 320 320)">MAR</text>
 <text class="y" x="320" y="160" transform="rotate(270 320 320)">APR</text>
 <text class="y" x="320" y="160" transform="rotate(300 320 320)">MAY</text>
 <text class="y" x="320" y="160" transform="rotate(330 320 320)">JUN</text>
 <line id="y" x1="320" y1="320" x2="320" y2="440" stroke-width="20" stroke="#f70"/>
 <line id="p" x1="320" y1="320" x2="320" y2="480" stroke-width="15" stroke="#77f"/>
 <line id="w" x1="320" y1="320" x2="320" y2="500" stroke-width="12" stroke="#777"/>
 <line id="h" x1="320" y1="320" x2="320" y2="520" stroke-width="10" stroke="#000"/>
 <line id="m" x1="320" y1="320" x2="320" y2="560" stroke-width="5" stroke="#000"/>
 <line id="s" x1="320" y1="320" x2="320" y2="580" stroke-width="2" stroke="#f77"/>
 <circle cx="320" cy="320" r="20" fill="#000"/>
</svg>
